<?xml version="1.0" encoding="utf-8"?><svg xmlns="http://www.w3.org/2000/svg" xmlns:xlink="http://www.w3.org/1999/xlink"><symbol viewBox="0 0 20 20" id="facebook"><path d="M14.8 1.2C13.7.9 13 .8 12.1.8c-1.9 0-4.3.4-4.9 3.5v4L7 8.2v.1H5.2v3h2.3v7.9h3.9V11.3h3.4V8.4h-3.4v-.2h-.1V7.1c0-1.1-.3-2.7 1.7-2.7.2 0 1.5.3 1.6.3.1 0 .1-.3.2-.6V1.2z"/></symbol><symbol viewBox="0 0 20 20" id="googleplus"><path d="M8.1 3.5c-.2-.5-.5-.9-.9-1.2-.5-.2-.9-.4-1.4-.4-.7 0-1.3.3-1.8.8-.4.5-.6 1.1-.5 1.8 0 .9.3 1.8.8 2.7.3.4.6.8 1 1.1.4.3.9.5 1.4.5.7 0 1.2-.2 1.7-.7.2-.3.4-.6.4-.9 0-.3.1-.6.1-.8 0-1-.3-2-.8-2.9zM6 12.6c-.5.1-1.1.2-1.6.3l-.6.3c-.2.1-.5.2-.7.4-.2.2-.4.4-.6.7-.2.3-.3.7-.3 1.1 0 .8.4 1.5 1.2 2.1.8.5 1.8.8 3.2.8 1.2 0 2.1-.3 2.8-.7.6-.5.9-1.1.9-1.8 0-.6-.2-1.1-.6-1.6-.5-.4-1.2-1-2.1-1.6H6zM9.3 2c.2.1.3.2.5.4s.4.4.6.7c.2.3.3.6.5.9.1.4.2.8.2 1.2 0 .9-.2 1.5-.6 2.1-.2.2-.4.5-.6.7-.3.2-.5.4-.8.6-.2.2-.3.3-.4.5-.2.2-.3.4-.3.7 0 .3.1.5.2.6.1.2.3.3.4.4l.9.7c.5.4 1 .9 1.4 1.4.4.5.6 1.2.6 2 0 1.2-.5 2.2-1.7 3.1-1.1.9-2.8 1.4-4.9 1.4-1.8 0-3.2-.4-4-1.1C.4 17.6 0 16.9 0 16c0-.5.1-.9.4-1.5.3-.5.8-1 1.5-1.4.8-.4 1.7-.7 2.6-.9 1-.2 1.8-.2 2.4-.3-.2-.2-.4-.5-.5-.7-.2-.2-.3-.6-.3-.9 0-.2 0-.4.1-.5l.2-.4h-.8c-1.4 0-2.5-.4-3.2-1.2-.7-.7-1.1-1.6-1.1-2.6 0-1.2.5-2.2 1.6-3.2.7-.6 1.5-.9 2.3-1.1C6 1.2 6.7 1 7.4 1h5.2L11 2H9.3zM20 5h-2.9v3h-1.5V5h-3.1V3.5h3.1V.6h1.5v2.8H20V5z"/></symbol><symbol viewBox="0 0 20 20" id="instagram"><path d="M6.6 10.1c0-1.9 1.5-3.4 3.4-3.4s3.4 1.5 3.4 3.4-1.5 3.4-3.4 3.4-3.4-1.5-3.4-3.4zM3.4 8.6h1.8c-.1.5-.2 1-.2 1.5 0 2.8 2.3 5.1 5.1 5.1s5.1-2.3 5.1-5.1c0-.5-.1-1-.2-1.5h1.8v7.2c0 .4-.4.8-.8.8H4.2c-.4 0-.8-.4-.8-.8V8.6zm10.2-5.2h2.5c.3 0 .5.2.5.5v2.5c0 .3-.2.5-.5.5h-2.5c-.3 0-.5-.2-.5-.5V3.9c0-.3.2-.5.5-.5zM3.2 1.5c-.9 0-1.7.8-1.7 1.7v13.7c0 .9.8 1.7 1.7 1.7h13.7c.9 0 1.7-.8 1.7-1.7V3.2c0-.9-.8-1.7-1.7-1.7H3.2z"/></symbol><symbol viewBox="0 2 26 26" id="linkedin"><path class="dst0" d="M24.7 2H1.3C.6 2 0 2.6 0 3.3v23.4c0 .7.6 1.3 1.3 1.3h23.4c.7 0 1.3-.6 1.3-1.3V3.3c0-.7-.6-1.3-1.3-1.3zM7.5 24.3H3.8v-13h3.8v13zM5.5 9C4 9 3.3 7.5 3.3 6.8c0-1.5 1.3-2 2.3-2 1.5 0 2.3 1.3 2.3 2C7.8 8.3 6.5 9 5.5 9zm17.8 15.3h-3.5v-8c-.6-1.9-1.8-2-2.5-2-2 0-2.8 1.5-2.8 3v7H11v-13h3.5c0 .5 0 1.3.3 1.8 1.5-2.3 2.5-2 4-2 1.3 0 4.5.5 4.5 3.3v9.9z"/></symbol><symbol viewBox="0 0 20 20" id="twitter"><path d="M15 1.9c.4.2 1.5 1.1 1.9 1.1.3 0 .3 0 .4-.1.2-.1.5-.1.7-.2 0 0 1.1-.6 1.1-.3 0 .4-1.3 1.5-1.5 1.7.1.1 0 .2.3.2.2 0 .8-.1 1.5-.4 0 0 .1-.1.1.2 0 .2-1.4.8-1.6 1.7-.4.8-.1 1.9-.3 2.8-.2.9-.5 2-1 3 0 .1-.2.3-.3.4-1.1 2.7-5 5.6-7.5 5.9-.3 0-.5.2-.8.3-1.5 0-1.7.1-1.9.1-1.4 0-5.1-1-5.5-1.8 1.6.2 3.6-.5 5.4-1.6 0 0 0-.1.1-.2-1.4-.4-2.7-.8-3.6-2.3v-.5c.1 0 .2-.1.5-.1.1 0 0 .2.2.2.3 0 .5-.2.8-.4C2.4 11.2.8 9.4.8 8.1c0-.3 0-.4.2-.4.3 0 .8.4 1 .4.3 0 .4-.1.4-.1s.1 0 .1-.2C2.5 7.7.9 6 .9 5.5v-2c.1-.2.3-.5.5-.8C3.9 5.7 7 6.4 9.6 7c.1-.1.2-.3.2-.5V5.1c.7-2.6 2.2-3.4 4-3.4.2.1.8 0 1.2.2z"/></symbol><symbol viewBox="0 0 20 20" id="vines"><path d="M18.6 4.8c0 1.1-.2 2.4-.7 3.4-.2.1-.5.1-.7.1-.1 0-.6 0-.8-.1-.2-.1-1.3-.6-1.3-.9 0-.2.2-1 .3-1.4V4.3c0-.8-.5-1.3-1.2-1.3-1.4 0-1.4 1.7-1.4 2.4 0 2.7 1.5 4.8 4.5 4.8.2 0 .8 0 1.2-.1l.2.1v2.2c-.7.2-1.5.2-2.3.3-.1.1-.2.2-.2.4-.7 1.7-4.6 7.1-6.4 7.1-.6 0-1.3-.4-1.8-1-3.7-3.7-4.8-7.7-5.8-11.5-.4-1.6-.8-4.3-.8-4.4V3h3.3c.3 2.6.9 5.6 1.9 8.2.3.8.7 1.6 1.1 2.4.4.8 1.8 3.1 2.2 3.1.1 0 .6-.6.8-.9 1.1-1.3 1.9-2.7 2.6-4-1.7-.8-3.2-3.1-3.4-4.5 0-.3-.2-1.2-.2-1.3V4.5c.3-3 2.4-4.5 4.6-4.5 3.2 0 4.3 2.2 4.3 4.8z"/></symbol><symbol viewBox="0 0 30 20" id="youtube"><path d="M27 4.5c-.1-.4-.2-.7-.3-1-.2-.7-1.1-1.6-1.7-1.7-.1 0-.3-.1-.4-.1-.5-.1-1.1-.1-1.5-.2-.4 0-.8 0-1.2-.1l-9.6-.1-4 .1c-1.8 0-4.9.1-5.3 2.9 0 .4-.1.8-.1 1.2-.1.7-.1 1.3-.2 2v5.1c0 .1.1 2.1.4 3.2.1.4.3 1.2.8 1.7.7.7 1.5.9 2.3 1 .5.1 1.2.1 1.8.2l10.6.1c.8-.1 1.6-.1 3.5-.1.7-.1 1.4-.2 2.1-.2 3.1-.3 2.8-3.8 3.1-5.5V7.1c0-.1-.2-1.8-.3-2.6zm-14.5 8.7v-7l6.6 3.5-6.6 3.5z"/></symbol></svg>